<svg xmlns="http://www.w3.org/2000/svg" width="82" height="81.4" viewBox="0 0 82 81.4">
  <defs>
    <style>
      .cls-1 {
        fill: #fff;
        fill-rule: evenodd;
      }
    </style>
  </defs>
  <path id="Forma_1" data-name="Forma 1" class="cls-1" d="M1017.98,1618.46l-27.1-17.43a1.161,1.161,0,1,0-1.26,1.95l26.7,17.18h-6.22l-30.4-19.55a3.139,3.139,0,0,0-3.407,0L945.9,1620.16h-6.225L978,1595.51l5.428,3.49a1.165,1.165,0,0,0,1.26-1.96l-5.427-3.49a2.34,2.34,0,0,0-2.518,0l-38.72,24.91a2.19,2.19,0,0,0,1.185,4.03h5.874v7.52a1.929,1.929,0,0,0,1.53,1.89v2.05a1.934,1.934,0,0,0,1.928,1.93h0.16v14.26a1.165,1.165,0,0,0,2.329,0v-15.43a1.163,1.163,0,0,0-1.165-1.16h-0.923v-1.61h8.247v1.61h-0.923a1.163,1.163,0,0,0-1.165,1.16v25.72a1.165,1.165,0,0,0,1.165,1.17h0.923v1.75h-8.247v-1.75h0.923a1.165,1.165,0,0,0,1.165-1.17v-2.97a1.165,1.165,0,1,0-2.329,0v1.81h-0.16a1.928,1.928,0,0,0-1.928,1.93v2.05a1.926,1.926,0,0,0-1.53,1.88v2.35h-4.125a2.341,2.341,0,0,0-2.335,2.34v2.45a2.339,2.339,0,0,0,2.335,2.33h74.095a2.339,2.339,0,0,0,2.33-2.33v-2.45a2.341,2.341,0,0,0-2.33-2.34h-4.13v-2.35a1.929,1.929,0,0,0-1.53-1.88v-2.05a1.925,1.925,0,0,0-1.93-1.93h-0.16v-23.39h0.16a1.931,1.931,0,0,0,1.93-1.93v-2.05a1.932,1.932,0,0,0,1.53-1.89v-7.52h5.87A2.192,2.192,0,0,0,1017.98,1618.46Zm-40.424-15.89a0.8,0.8,0,0,1,.887,0l27.347,17.59H950.206Zm-30.148,19.92h61.182v2.85H947.408v-2.85Zm37.045,40.76v-2.05a1.928,1.928,0,0,0-1.928-1.93h-0.16v-23.39h0.16a1.934,1.934,0,0,0,1.928-1.93v-2.05a1.929,1.929,0,0,0,1.53-1.89v-2.35h8.972v2.35a1.929,1.929,0,0,0,1.53,1.89v2.05a1.934,1.934,0,0,0,1.928,1.93h0.16v23.39h-0.16a1.928,1.928,0,0,0-1.928,1.93v2.05a1.926,1.926,0,0,0-1.53,1.88v2.35h-8.972v-2.35A1.926,1.926,0,0,0,984.453,1663.25Zm-24.938,0v-2.05a1.928,1.928,0,0,0-1.928-1.93h-0.16v-23.39h0.16a1.934,1.934,0,0,0,1.928-1.93v-2.05a1.929,1.929,0,0,0,1.53-1.89v-2.35h8.972v2.35a1.929,1.929,0,0,0,1.53,1.89v2.05a1.934,1.934,0,0,0,1.928,1.93h0.16v23.39h-0.16a1.928,1.928,0,0,0-1.928,1.93v2.05a1.926,1.926,0,0,0-1.53,1.88v2.35h-8.972v-2.35A1.926,1.926,0,0,0,959.515,1663.25Zm21.685-1.65h0.924v1.75h-8.248v-1.75H974.8a1.164,1.164,0,0,0,1.164-1.17v-25.72a1.162,1.162,0,0,0-1.164-1.16h-0.924v-1.61h8.248v1.61H981.2a1.162,1.162,0,0,0-1.164,1.16v25.72A1.164,1.164,0,0,0,981.2,1661.6Zm-8.488-31.99h-0.366v-1.95h11.308v1.95H972.712Zm-0.366,36.01a1.417,1.417,0,0,0,.361.05h10.576a1.14,1.14,0,0,0,.371-0.06v1.87H972.346v-1.86Zm-24.572-36.01h-0.365v-1.95h11.308v1.95H947.774Zm-0.366,36a1.115,1.115,0,0,0,.366.06h10.577a1.109,1.109,0,0,0,.365-0.06v1.87H947.408v-1.87h0Zm67.642,4.21v2.45h-74.1l0.006-2.46Zm-6.83-4.15a1.1,1.1,0,0,0,.37-0.06v1.87H997.284v-1.86a1.419,1.419,0,0,0,.362.05h10.574Zm-8.483-32.12h-0.923v-1.61h8.246v1.61h-0.92a1.163,1.163,0,0,0-1.17,1.16v25.72a1.165,1.165,0,0,0,1.17,1.17h0.92v1.75h-8.246v-1.75h0.923a1.164,1.164,0,0,0,1.163-1.17v-25.72A1.161,1.161,0,0,0,999.737,1633.55Zm8.853-3.94H997.284v-1.95h11.306v1.95h0Zm-30.1-18.58v-3.64a10.023,10.023,0,0,1,2.149.66,0.992,0.992,0,0,0,.788-1.02c0-.87-1.719-1.25-2.937-1.28v-0.49a0.52,0.52,0,0,0-.537-0.41,0.475,0.475,0,0,0-.519.41v0.52c-1.7.18-3.4,1.08-3.4,3.33,0,2.29,1.791,2.94,3.4,3.51v4.21c-1.827-.15-2.31-1.4-2.9-1.4a1.042,1.042,0,0,0-.824,1.02c0,0.88,1.5,2.08,3.725,2.11h0v0.56a0.475,0.475,0,0,0,.519.41,0.52,0.52,0,0,0,.537-0.41v-0.61a3.473,3.473,0,0,0,3.26-3.69C981.752,1612.39,980.05,1611.6,978.492,1611.03Zm-0.949-.34c-0.949-.36-1.719-0.74-1.719-1.76,0-.93.717-1.38,1.719-1.5v3.26Zm0.842,6.1v-3.78a2.1,2.1,0,0,1,1.576,2.01A1.7,1.7,0,0,1,978.385,1616.79Z" transform="translate(-937 -1593.19)"/>
</svg>
