<svg xmlns="http://www.w3.org/2000/svg" width="92.561" height="86.37" viewBox="0 0 92.561 86.37">
  <defs>
    <style>
      .cls-1 {
        fill: #fff;
        fill-rule: evenodd;
      }
    </style>
  </defs>
  <path class="cls-1" d="M996.887,1680.09a1.542,1.542,0,0,0-1.87,1.12l-1.543,6.17a1.537,1.537,0,0,0,1.124,1.87,1.215,1.215,0,0,0,.375.05,1.544,1.544,0,0,0,1.494-1.17l1.543-6.17A1.546,1.546,0,0,0,996.887,1680.09ZM978,1649.19a1.7,1.7,0,0,0,.589-0.11l16.971-7.03a1.543,1.543,0,0,0-1.181-2.85L978,1645.98l-43.2-17.87v-0.51a1.543,1.543,0,1,0-3.086,0v1.54a1.555,1.555,0,0,0,.954,1.43l44.742,18.51A1.694,1.694,0,0,0,978,1649.19ZM996.353,1665a1.533,1.533,0,0,0-2.065-.7,35.949,35.949,0,0,1-14.745,3.36v-13.84a1.543,1.543,0,0,0-3.086,0v13.83c-19.157-.61-25.339-12.22-26.228-14.15v-10.48a1.543,1.543,0,0,0-3.085,0v10.8a1.521,1.521,0,0,0,.109.57c0.269,0.67,6.835,16.4,30.747,16.4a39.65,39.65,0,0,0,17.655-3.73A1.534,1.534,0,0,0,996.353,1665Zm4.787,16.59a1.542,1.542,0,0,0-1.541,1.54v4.63a1.541,1.541,0,0,0,3.081,0v-4.63A1.534,1.534,0,0,0,1001.14,1681.59Zm21.6-55.54a1.549,1.549,0,0,0-1.54,1.55v0.51l-18.51,7.62v-2.79l20.64-8.54a1.551,1.551,0,0,0,0-2.86l-44.741-18.51a1.6,1.6,0,0,0-1.178,0l-44.742,18.51a1.549,1.549,0,0,0,0,2.86l44.742,18.51a1.632,1.632,0,0,0,1.178,0l16.178-6.7a1.542,1.542,0,0,0-1.178-2.85L978,1639.81l-40.708-16.84L978,1606.13l40.71,16.84-17.72,7.33-16.962-6.34a3.684,3.684,0,0,0,.143-0.99c0-2.6-2.711-4.63-6.171-4.63s-6.171,2.03-6.171,4.63,2.711,4.63,6.171,4.63a7.448,7.448,0,0,0,3.993-1.1l17.606,6.57v4.94h0v33.06a4.631,4.631,0,1,0,3.081,0v-8.75a18.855,18.855,0,0,0,6.09-7.99,1.524,1.524,0,0,0,.09-0.51v-10.8a1.545,1.545,0,0,0-3.09,0v10.52a15.763,15.763,0,0,1-3.09,4.66v-19.14l20.65-8.49a1.547,1.547,0,0,0,.95-1.43v-1.54A1.549,1.549,0,0,0,1022.74,1626.05ZM978,1624.51c-1.884,0-3.086-.91-3.086-1.54s1.2-1.54,3.086-1.54,3.085,0.91,3.085,1.54S979.883,1624.51,978,1624.51Zm23.14,52.45a1.545,1.545,0,1,1,1.54-1.54A1.542,1.542,0,0,1,1001.14,1676.96Zm6.13,4.25a1.546,1.546,0,0,0-3,.75l1.55,6.17a1.536,1.536,0,0,0,1.49,1.17,1.242,1.242,0,0,0,.38-0.05,1.538,1.538,0,0,0,1.12-1.87Z" transform="translate(-931.719 -1602.94)"/>
</svg>
