<svg xmlns="http://www.w3.org/2000/svg" width="87.122" height="87.12" viewBox="0 0 87.122 87.12">
  <defs>
    <style>
      .cls-1 {
        fill: #fff;
        fill-rule: evenodd;
      }
    </style>
  </defs>
  <path id="Forma_1" data-name="Forma 1" class="cls-1" d="M965.71,1614.26h2.726v2.55H965.71v-2.55Zm10.919,0h2.725v2.55h-2.725v-2.55Zm-5.451,0H973.9v2.55h-2.725v-2.55Zm10.9,0h2.725v2.55H982.08v-2.55Zm5.467,0h2.726v2.55h-2.726v-2.55Zm25.823,57.3v-1.98l-2.11-2.11h-0.62V1644.1h4.09v-8.01h-15v-4.17h-2.555v4.17H958.812v-9.98a3.837,3.837,0,0,1,3.832-3.83h30.7a3.837,3.837,0,0,1,3.832,3.83v3.07h2.555v-3.07a6.394,6.394,0,0,0-5.45-6.32v-4.24a6.735,6.735,0,0,0-6.729-6.73h-8.261v-6.98h10.919v-7.44a1.967,1.967,0,0,0-1.959-1.96H976.731v16.37H968.47a6.727,6.727,0,0,0-6.729,6.72v4.25a6.392,6.392,0,0,0-5.45,6.31v9.99H941.25v8h4.088v13.73h2.555v-13.73h1.533v23.36h-1.533v-6.9h-2.555v6.9h-0.613l-2.112,2.11v2.01h-8.176v8h87.123v-8h-8.19Zm-34.084-76.57h8.346v4.26h-8.346v-4.26Zm-15.024,20.54a4.177,4.177,0,0,1,4.174-4.17H987.53a4.176,4.176,0,0,1,4.173,4.17v4.18H964.262v-4.18Zm46.558,55.11v0.92h-6.99v-0.92l0.61-.62h5.76Zm-14.569-3.19h-0.613V1644.1h8.342v23.35h-0.61l-2.11,2.11v2h-2.9v-1.98Zm-1.056,2.56,0.614,0.61v0.92h-6.984v-0.92l0.613-.61H995.2Zm-3.645-2.56V1644.1h1.533v23.35H991.55Zm15.01,0V1644.1h1.53v23.35h-1.53Zm-62.755-25.91v-2.89h68.375v2.89H983.442v2.56h5.536v23.35h-0.6l-2.112,2.11v2h-2.9v-11.01a5.366,5.366,0,0,0-10.731,0v11.01h-2.9v-1.98l-2.146-2.13h-0.613V1644.1h13.729v-2.56H943.805Zm37,19.01v11.01h-5.621v-11.01A2.811,2.811,0,0,1,980.8,1660.55Zm-28.191,6.9H952V1644.1h8.347v23.35h-0.614l-2.112,2.11v2h-2.895v-1.98Zm7.563,3.17,0.614-.61h5.757l0.613,0.61v0.92h-6.984v-0.92h0Zm2.726-3.17V1644.1h1.533v23.35H962.9Zm-17.732,3.19,0.613-.62h5.757l0.614,0.62v0.92h-6.984v-0.92Zm73.842,6.37H936.992v-2.9h82.018v2.9Zm-49.109-30.1h2.555v5.45H969.9v-5.45Zm6.813,0h2.555v5.45h-2.555v-5.45Zm6.813,0h2.555v5.45h-2.555v-5.45Zm15.007,0h2.556v5.45h-2.556v-5.45Zm0,8.19h2.556v2.73h-2.556v-2.73Zm0,5.45h2.556v2.73h-2.556v-2.73Zm-43.64-13.64h2.555v5.45h-2.555v-5.45Zm0,8.19h2.555v2.73h-2.555v-2.73Zm8.176-30.01h2.555v8.18H963.07v-8.18Zm13.644,0h2.555v8.18h-2.555v-8.18Zm13.644,0h2.555v8.18h-2.555v-8.18Zm-35.464,35.46h2.555v2.73h-2.555v-2.73Zm14.921-32.65h2.726v2.56h-2.726v-2.56Zm13.627,0h2.726v2.56h-2.726v-2.56Z" transform="translate(-934.438 -1592.44)"/>
</svg>
