<svg xmlns="http://www.w3.org/2000/svg" width="89.684" height="89.68" viewBox="0 0 89.684 89.68">
  <defs>
    <style>
      .cls-1 {
        fill: #fff;
        fill-rule: evenodd;
      }
    </style>
  </defs>
  <path id="Forma_1" data-name="Forma 1" class="cls-1" d="M996.672,1624.38l-0.96-3.16a6.863,6.863,0,0,0-13,0l-0.96,3.16a17.732,17.732,0,0,0-.5,8.22,7.716,7.716,0,0,0,3.983,5.39l-1.075,24.04a4.733,4.733,0,0,0,1.2,3.68,5.228,5.228,0,0,0,7.379.33q0.173-.165.331-0.33a4.68,4.68,0,0,0,1.2-3.58l-1.081-24.14a7.734,7.734,0,0,0,3.977-5.39A17.732,17.732,0,0,0,996.672,1624.38Zm-2.451,7.7a4.759,4.759,0,0,1-3.1,3.58,1.478,1.478,0,0,0-.968,1.46l1.137,25.24a1.74,1.74,0,0,1-.449,1.36,2.312,2.312,0,0,1-3.25,0,1.806,1.806,0,0,1-.44-1.46l1.127-25.14a1.476,1.476,0,0,0-.967-1.46,4.762,4.762,0,0,1-3.1-3.58,14.721,14.721,0,0,1,.412-6.82l0.96-3.16a3.872,3.872,0,0,1,7.272,0l0.96,3.16A14.721,14.721,0,0,1,994.221,1632.08Zm-20.707-15.51a1.5,1.5,0,0,0-1.5,1.5v12.83l-4.047,4.05a1.493,1.493,0,0,0-.438,1.13l1.308,26.17a2.027,2.027,0,0,1-.565,1.52,2.1,2.1,0,0,1-2.978.02,0.226,0.226,0,0,0-.013-0.02,2.023,2.023,0,0,1-.565-1.52l1.317-26.17a1.5,1.5,0,0,0-.436-1.13l-4.049-4.05v-12.83a1.5,1.5,0,1,0-2.991,0v13.45a1.5,1.5,0,0,0,.438,1.06l4.017,4.02-1.276,25.51a5.051,5.051,0,1,0,10.09.49c0.008-.17.008-0.33,0-0.49l-1.276-25.51,4.016-4.02a1.493,1.493,0,0,0,.439-1.06v-13.45A1.5,1.5,0,0,0,973.514,1616.57Zm-8.971,0a1.5,1.5,0,0,0-1.5,1.5v11.96a1.5,1.5,0,0,0,2.99,0v-11.96A1.5,1.5,0,0,0,964.543,1616.57Zm4.486,0a1.5,1.5,0,0,0-1.5,1.5v11.96a1.5,1.5,0,0,0,2.99,0v-11.96A1.5,1.5,0,0,0,969.029,1616.57ZM978,1594.14a44.86,44.86,0,1,0,44.86,44.86A44.862,44.862,0,0,0,978,1594.14Zm0,86.73a41.87,41.87,0,1,1,41.87-41.87A41.871,41.871,0,0,1,978,1680.87Zm4.854-13.8a1.5,1.5,0,0,0-1.634-1.35,0.117,0.117,0,0,1-.058.01h0.006a27.968,27.968,0,0,1-6.336,0,1.5,1.5,0,1,0-.349,2.97,30.591,30.591,0,0,0,7.028,0A1.494,1.494,0,0,0,982.854,1667.07Zm18.026-47.34a1.5,1.5,0,0,0-2.11-.18h-0.006a1.5,1.5,0,0,0-.18,2.11,26.908,26.908,0,0,1-1.586,36.4,1.5,1.5,0,1,0,2.111,2.12A29.916,29.916,0,0,0,1000.88,1619.73Zm-32.9-5.82h0Zm17.072-3.98a30.213,30.213,0,0,0-17.6,1.08,1.5,1.5,0,0,0,.525,2.9,1.556,1.556,0,0,0,.523-0.1,27.14,27.14,0,0,1,15.849-.97A1.5,1.5,0,0,0,985.053,1609.93Zm-26.118,48.06a26.909,26.909,0,0,1-2.7-34.82,1.5,1.5,0,1,0-2.39-1.8c-0.009.01-.018,0.03-0.026,0.04a29.905,29.905,0,0,0,3,38.7A1.5,1.5,0,0,0,958.935,1657.99Z" transform="translate(-933.156 -1594.16)"/>
</svg>
