<svg xmlns="http://www.w3.org/2000/svg" width="106.878" height="78.18" viewBox="0 0 106.878 78.18">
  <defs>
    <style>
      .cls-1 {
        fill: #fff;
        fill-rule: evenodd;
      }
    </style>
  </defs>
  <path id="Forma_1" data-name="Forma 1" class="cls-1" d="M1030.1,1642.38h-9.04c3.75-8.53,3.35-15.44,1.93-20.11-2.44-8.32-10.67-17.36-22.86-17.36a28.544,28.544,0,0,0-9.848,1.83,50.893,50.893,0,0,0-11.376,5.69,48.553,48.553,0,0,0-11.375-5.69,28.989,28.989,0,0,0-9.853-1.83c-12.188,0-20.415,9.04-22.852,17.36-1.422,4.98-1.93,12.49,2.844,21.93H926.7a1.625,1.625,0,1,0,0,3.25h12.9a20.765,20.765,0,0,0,1.829,2.74c10.563,15.23,33.517,31.78,37.681,32.79v0.11a0.306,0.306,0,0,0,.2-0.11h0.3v-0.1c3.555-1.72,25.593-15.94,37.173-32.79a35.964,35.964,0,0,0,2.84-4.57h10.67a1.6,1.6,0,0,0,1.62-1.62A1.694,1.694,0,0,0,1030.1,1642.38Zm-16.25,5.99c-10.77,15.73-30.576,28.42-34.842,31.16-4.368-2.74-24.072-15.53-34.94-31.16-0.2-.31-0.406-0.61-0.609-0.92h14.93a1.671,1.671,0,0,0,1.524-.91l6.8-13.4,10.665,27.31a1.657,1.657,0,0,0,1.523,1.01h0.1a1.619,1.619,0,0,0,1.523-1.22l9.345-31.98,4.976,16.15a1.645,1.645,0,0,0,1.321,1.11,1.756,1.756,0,0,0,1.625-.71l3.962-5.78,3.35,5.68a1.617,1.617,0,0,0,1.42.81h9.14C1015.06,1646.54,1014.46,1647.45,1013.85,1648.37Zm3.65-5.99h-9.95l-4.17-7.11a1.6,1.6,0,0,0-1.42-.81,1.523,1.523,0,0,0-1.42.71l-3.453,5.07-5.586-18.17a1.884,1.884,0,0,0-1.625-1.22,1.743,1.743,0,0,0-1.626,1.22l-9.445,32.59-10.259-26.19a1.53,1.53,0,0,0-1.422-1.02,1.578,1.578,0,0,0-1.523.92l-8.024,15.73H941.428c-4.063-7.41-5.18-14.52-3.352-20.91,2.133-7.21,9.141-14.93,19.7-14.93a26.916,26.916,0,0,1,8.735,1.63,49.284,49.284,0,0,1,11.477,5.89,1.562,1.562,0,0,0,2.031,0,44.229,44.229,0,0,1,11.478-5.89,24.506,24.506,0,0,1,8.739-1.63c10.46,0,17.57,7.72,19.7,14.93C1021.67,1629.08,1020.75,1635.57,1017.5,1642.38Z" transform="translate(-925.062 -1604.91)"/>
</svg>
