<svg xmlns="http://www.w3.org/2000/svg" width="73.5" height="86.44" viewBox="0 0 73.5 86.44">
  <defs>
    <style>
      .cls-1 {
        fill: #fff;
        fill-rule: evenodd;
      }
    </style>
  </defs>
  <path id="Forma_1" data-name="Forma 1" class="cls-1" d="M990.867,1604.96a12.5,12.5,0,0,0-22.461-5.56,1.465,1.465,0,0,0,.319,2.05,1.482,1.482,0,0,0,2.053-.32,9.56,9.56,0,0,1,17.178,4.25,1.473,1.473,0,0,0,1.454,1.26,1.492,1.492,0,0,0,.209-0.02A1.467,1.467,0,0,0,990.867,1604.96Zm21.233,16.4-4.41-7.32a1.485,1.485,0,0,0-1.26-.71h-4.23a1.465,1.465,0,1,0,0,2.93h3.39l2.65,4.39H948.759l2.646-4.39h1.556a1.465,1.465,0,1,0,0-2.93h-2.388a1.473,1.473,0,0,0-1.261.71l-4.409,7.32a1.464,1.464,0,0,0,1.26,2.22h64.677a1.45,1.45,0,0,0,1.27-.74A1.477,1.477,0,0,0,1012.1,1621.36Zm-7.33-13.5a1.471,1.471,0,0,0-.92-0.66l-20.032-4.67a1.467,1.467,0,0,0-1.766,1.09l-1.511,6.44a1.47,1.47,0,0,0,2.863.67l1.176-5.01,17.17,4-2.7,11.5a1.462,1.462,0,0,0,1.1,1.76,1.317,1.317,0,0,0,.34.04,1.473,1.473,0,0,0,1.43-1.13l3.03-12.93A1.463,1.463,0,0,0,1004.77,1607.86Zm-25.493,3.46-1.34-11.29a1.46,1.46,0,0,0-1.632-1.28l-24.583,2.89a1.474,1.474,0,0,0-1.287,1.63l2.233,18.83a1.47,1.47,0,0,0,1.458,1.29,1.039,1.039,0,0,0,.175-0.01,1.459,1.459,0,0,0,1.286-1.62l-2.06-17.38,21.664-2.55,1.166,9.83A1.47,1.47,0,1,0,979.277,1611.32Zm11.624,10.24-2.917-12.09a1.461,1.461,0,0,0-1.773-1.08l-23.678,5.67a1.468,1.468,0,0,0-1.086,1.77l1.458,6.04a1.469,1.469,0,1,0,2.858-.68l-1.114-4.62,20.819-4.99,2.574,10.67a1.469,1.469,0,0,0,1.428,1.12,1.36,1.36,0,0,0,.345-0.04A1.467,1.467,0,0,0,990.9,1621.56Zm21.4,0.48a1.461,1.461,0,0,0-1.46-1.39H946.164a1.467,1.467,0,0,0-1.468,1.39l-2.94,57.14a1.453,1.453,0,0,0,.4,1.08,1.482,1.482,0,0,0,1.066.46h70.546a1.483,1.483,0,0,0,1.07-.46,1.444,1.444,0,0,0,.4-1.08Zm-67.529,55.75,2.789-54.21h61.88l2.79,54.21H944.771Zm44.752-51.28a4.4,4.4,0,1,0,4.409,4.4A4.406,4.406,0,0,0,989.523,1626.51Zm0,5.86a1.465,1.465,0,1,1,1.47-1.46A1.463,1.463,0,0,1,989.523,1632.37Zm-22.047-5.86a4.4,4.4,0,1,0,4.409,4.4A4.407,4.407,0,0,0,967.476,1626.51Zm0,5.86a1.465,1.465,0,1,1,1.47-1.46A1.464,1.464,0,0,1,967.476,1632.37Zm22.047-1.46H989.41a1.463,1.463,0,0,0-1.47,1.46,1.5,1.5,0,0,0,.113.57v7.49a9.554,9.554,0,0,1-19.107,0v-8.06a1.47,1.47,0,0,0-2.94,0v8.06a12.494,12.494,0,0,0,24.987,0v-8.06A1.463,1.463,0,0,0,989.523,1630.91Z" transform="translate(-941.75 -1594.28)"/>
</svg>
